<?xml version="1.0" standalone="no"?>
<!DOCTYPE svg PUBLIC "-//W3C//DTD SVG 20010904//EN"
 "http://www.w3.org/TR/2001/REC-SVG-20010904/DTD/svg10.dtd">
<svg version="1.0" xmlns="http://www.w3.org/2000/svg"
 width="600.000000pt" height="600.000000pt" viewBox="0 0 600.000000 600.000000"
 preserveAspectRatio="xMidYMid meet">
<g transform="translate(0.000000,600.000000) scale(0.100000,-0.100000)"
fill="#000000" stroke="none">
<path d="M3475 4984 c-331 -100 -1001 -299 -1450 -430 -175 -51 -330 -102
-344 -112 -14 -10 -34 -31 -45 -46 -21 -27 -21 -30 -24 -1583 -1 -1083 1
-1567 9 -1595 16 -60 76 -117 176 -170 112 -59 208 -92 306 -108 141 -23 194
-13 632 118 220 66 661 198 980 292 319 95 592 179 608 188 15 9 36 35 47 58
20 40 20 61 18 1541 -3 1460 -4 1501 -22 1522 -23 25 -56 27 -135 5 l-58 -16
-84 39 c-97 46 -197 131 -228 197 -13 25 -21 62 -21 92 0 61 -21 94 -58 93
-15 0 -153 -39 -307 -85z m328 47 c5 -1 7 -20 6 -44 -2 -24 1 -48 5 -55 4 -7
5 -19 2 -27 -3 -8 -2 -15 3 -15 4 0 13 -12 20 -27 7 -15 21 -33 32 -41 10 -7
19 -19 19 -25 0 -12 56 -61 75 -67 6 -1 19 -13 31 -25 11 -12 31 -26 43 -30
12 -4 21 -9 18 -11 -2 -3 -15 0 -29 5 -14 5 -31 5 -40 0 -22 -13 -51 0 -43 19
8 22 -49 72 -75 66 -11 -2 -29 -6 -40 -8 -11 -3 -26 -8 -33 -12 -6 -3 1 6 17
20 30 27 43 56 25 56 -6 0 -7 5 -4 10 8 12 -55 41 -70 32 -5 -3 -2 3 7 14 20
23 19 62 -2 87 -15 18 -40 23 -40 9 0 -5 -6 -9 -12 -9 -28 -1 -83 -14 -93 -22
-10 -8 -45 -18 -93 -27 -13 -3 -43 -12 -65 -20 -23 -9 -49 -17 -57 -18 -26 -5
-103 -26 -175 -49 -80 -25 -70 -22 -112 -32 -18 -4 -33 -10 -33 -14 0 -3 -14
-7 -31 -7 -17 -1 -34 -5 -38 -10 -3 -5 -13 -10 -21 -11 -22 -2 -57 -11 -93
-22 -101 -32 -166 -52 -183 -55 -10 -2 -50 -14 -89 -26 -110 -33 -207 -62
-240 -71 -16 -4 -68 -19 -115 -33 -47 -14 -108 -31 -137 -37 -30 -7 -50 -17
-46 -22 3 -6 1 -7 -4 -4 -6 4 -27 0 -47 -8 -20 -8 -39 -15 -43 -15 -26 0 -73
-14 -73 -22 0 -5 -4 -6 -10 -3 -14 9 -89 -15 -132 -42 -47 -29 -72 -65 -63
-93 14 -44 55 -74 200 -149 165 -85 276 -107 390 -79 22 6 47 12 55 13 8 2 34
10 58 19 24 9 46 15 50 15 25 -4 42 2 36 13 -5 8 -2 9 9 5 9 -3 19 -2 22 4 4
5 10 7 14 5 7 -5 121 25 166 43 44 18 91 33 110 36 11 2 40 10 65 19 25 9 53
16 63 16 9 0 17 4 17 9 0 6 8 10 18 10 33 0 112 23 112 32 0 6 5 7 10 4 10 -6
99 18 132 36 10 5 29 9 43 9 14 0 25 5 25 11 0 5 4 8 8 5 8 -5 165 39 187 52
5 3 16 7 25 7 8 1 31 7 50 13 19 6 64 20 100 32 69 22 101 30 138 34 13 1 27
7 30 12 4 5 12 9 17 9 29 1 125 29 125 37 0 5 6 8 13 7 18 -4 65 22 72 38 4
11 1 13 -12 8 -10 -4 -40 -14 -68 -22 -27 -8 -142 -41 -255 -75 -113 -33 -293
-86 -400 -118 -1117 -335 -1039 -313 -1130 -313 -104 0 -159 16 -300 90 -126
67 -170 98 -170 122 0 50 14 55 720 262 579 169 1211 356 1271 374 12 4 18 -2
21 -20 5 -24 1 -26 -136 -69 -78 -24 -377 -119 -666 -210 -289 -91 -637 -199
-775 -241 -248 -76 -318 -100 -265 -91 14 2 162 42 330 89 283 80 718 201
1140 317 96 27 228 64 293 83 114 33 118 33 128 15 6 -11 9 -21 7 -22 -2 -1
-91 -30 -198 -63 -341 -107 -961 -304 -1067 -338 -56 -18 -187 -59 -292 -91
-105 -31 -191 -61 -191 -65 0 -4 28 2 61 12 34 11 249 71 478 135 579 160 588
163 949 264 253 70 327 88 343 80 10 -6 19 -14 19 -18 0 -4 -60 -26 -133 -49
-72 -22 -402 -127 -732 -231 -330 -105 -653 -207 -718 -227 -65 -20 -116 -39
-114 -42 3 -2 58 11 124 31 65 19 444 125 843 236 399 110 745 207 769 215 38
13 47 13 72 0 37 -19 39 -19 39 7 0 16 3 19 11 11 6 -6 18 -9 25 -6 8 3 14 0
14 -5 0 -22 70 -25 128 -6 69 22 84 25 77 14 -3 -4 3 -10 13 -12 16 -5 17 -89
16 -1516 0 -1403 -2 -1513 -17 -1530 -9 -10 -14 -22 -10 -27 5 -4 3 -5 -4 -2
-6 4 -18 1 -26 -7 -8 -8 -17 -13 -19 -11 -4 5 -189 -50 -223 -66 -11 -5 -29
-10 -40 -12 -64 -11 -134 -31 -129 -39 3 -4 -3 -9 -13 -9 -45 -3 -64 -7 -109
-22 -74 -25 -159 -50 -159 -48 0 2 -105 -28 -125 -36 -8 -3 -19 -7 -25 -8 -78
-19 -175 -50 -175 -57 0 -5 -4 -7 -9 -4 -5 3 -43 -5 -85 -19 -42 -14 -84 -25
-92 -25 -8 0 -25 -5 -37 -12 -12 -6 -29 -13 -37 -14 -8 -1 -28 -7 -45 -12 -16
-6 -57 -18 -90 -27 -33 -9 -89 -26 -125 -38 -36 -11 -75 -22 -88 -23 -13 -2
-29 -7 -35 -12 -7 -5 -37 -15 -67 -23 -30 -7 -60 -17 -67 -22 -7 -5 -41 -11
-75 -13 -35 -2 -58 -2 -53 1 15 8 9 2983 -6 3012 -9 17 -20 22 -50 21 -21 0
-36 -4 -33 -9 3 -5 1 -9 -4 -9 -29 0 -32 -61 -33 -822 -3 -993 2 -2147 8
-2173 3 -11 5 -28 5 -37 -1 -11 5 -15 16 -11 15 4 15 3 2 -6 -9 -6 -52 -9
-105 -7 -97 4 -107 5 -175 31 -25 9 -53 17 -62 18 -9 1 -14 5 -12 9 3 4 -2 8
-11 8 -31 0 -170 74 -211 113 -29 26 -45 52 -53 82 -12 49 -15 355 -3 355 4 0
30 -23 57 -52 45 -45 96 -76 118 -70 4 1 7 -2 7 -6 0 -15 157 -74 245 -92 153
-31 162 -27 161 78 -1 80 -13 99 -65 107 -20 3 -54 10 -76 16 -22 5 -52 10
-67 11 -16 1 -28 6 -28 10 0 4 -3 7 -7 7 -5 -1 -11 0 -15 1 -5 1 -11 3 -15 5
-46 12 -174 75 -195 95 -12 11 -25 20 -30 20 -4 0 -8 8 -8 18 0 11 -3 13 -8 5
-5 -8 -15 -3 -30 17 -14 17 -29 27 -38 23 -12 -4 -14 124 -14 941 0 520 4 946
8 946 5 0 24 -17 43 -38 35 -39 111 -102 124 -102 4 0 -3 9 -16 21 l-24 21 32
-21 c17 -12 36 -21 42 -21 6 0 11 -4 11 -9 0 -5 16 -12 35 -15 20 -4 33 -11
30 -16 -3 -5 17 -12 45 -16 27 -4 50 -10 50 -14 0 -4 40 -15 90 -24 86 -16 91
-16 110 1 16 16 19 31 18 88 -3 92 -14 103 -118 119 -19 3 -57 12 -83 20 -28
9 -45 11 -41 5 3 -6 -4 -4 -17 4 -13 8 -42 20 -64 27 -22 7 -44 16 -49 21 -6
5 -18 9 -28 9 -10 0 -21 7 -24 15 -4 8 -11 15 -16 15 -10 0 -89 60 -121 92
-10 10 -23 16 -29 12 -7 -4 -9 76 -7 252 l3 259 26 29 c28 31 74 59 83 49 4
-3 13 -1 21 6 8 6 18 11 22 9 5 -1 20 1 34 5 14 4 43 13 65 19 22 6 56 16 75
23 19 7 41 10 49 7 8 -2 11 0 7 6 -3 6 13 13 41 17 25 4 58 12 72 17 14 6 32
10 40 9 8 -1 10 2 5 10 -4 7 -3 10 3 6 9 -6 101 16 138 34 26 12 161 49 203
56 17 3 32 9 32 13 0 5 10 6 22 2 16 -4 19 -2 13 8 -6 10 -4 12 8 7 9 -3 19
-2 22 3 4 6 19 10 35 10 16 0 32 5 35 10 4 6 11 8 16 5 5 -4 9 -2 9 4 0 6 7 8
15 5 8 -4 15 -2 15 4 0 6 10 8 22 4 11 -3 19 -1 16 4 -4 5 4 10 15 11 24 2 62
10 62 13 0 1 13 4 30 6 16 3 50 14 75 25 25 10 59 21 75 23 17 2 44 9 60 16
17 7 43 14 58 16 16 2 47 12 70 22 23 10 48 17 55 14 7 -2 19 2 27 8 8 7 22
10 30 6 9 -3 18 1 22 9 3 9 10 14 17 13 18 -3 116 25 116 34 0 4 3 7 8 6 4 -1
28 1 55 6 30 5 45 11 41 18 -4 6 -3 8 3 5 11 -7 113 21 128 34 5 5 21 7 35 5
14 -2 29 -5 33 -5z m-53 -185 c0 -2 -15 -9 -32 -15 -30 -10 -31 -9 -14 4 18
14 46 20 46 11z m-250 -76 c-8 -5 -19 -10 -25 -10 -5 0 -3 5 5 10 8 5 20 10
25 10 6 0 3 -5 -5 -10z m277 -36 c-3 -3 -12 -4 -19 -1 -8 3 -5 6 6 6 11 1 17
-2 13 -5z m156 -67 c3 -8 -1 -14 -8 -14 -7 0 -11 6 -8 14 3 7 6 13 8 13 2 0 5
-6 8 -13z m-33 -11 c0 -3 -4 -8 -10 -11 -5 -3 -10 -1 -10 4 0 6 5 11 10 11 6
0 10 -2 10 -4z m-45 -16 c-3 -5 -12 -10 -18 -10 -7 0 -6 4 3 10 19 12 23 12
15 0z m-65 -14 c0 -2 -6 -9 -14 -15 -11 -9 -16 -9 -22 0 -4 7 -3 9 4 5 6 -3
13 -2 17 4 6 10 15 14 15 6z m-1440 -2120 l0 -1504 -21 -5 c-52 -14 -49 -109
-49 1499 0 1411 1 1494 18 1503 9 6 25 11 35 11 16 0 17 -78 17 -1504z m-509
1186 c85 -41 227 -84 322 -98 l47 -6 0 -74 c0 -72 -1 -74 -22 -69 -13 3 -59
12 -102 21 -210 42 -398 152 -425 250 -6 22 -11 57 -11 80 l0 40 53 -51 c32
-31 85 -66 138 -93z m-20 -2068 c91 -45 191 -80 272 -94 130 -22 117 -12 117
-92 l0 -70 -47 7 c-98 14 -233 54 -307 90 -139 68 -205 148 -206 247 l0 47 49
-49 c27 -27 81 -65 122 -86z"/>
<path d="M1816 4302 c-3 -5 1 -9 9 -9 8 0 12 4 9 9 -3 4 -7 8 -9 8 -2 0 -6 -4
-9 -8z"/>
<path d="M1605 1141 c-3 -5 -2 -12 3 -15 5 -3 9 1 9 9 0 17 -3 19 -12 6z"/>
</g>
</svg>
