<?xml version="1.0" standalone="no"?>
<!DOCTYPE svg PUBLIC "-//W3C//DTD SVG 20010904//EN"
 "http://www.w3.org/TR/2001/REC-SVG-20010904/DTD/svg10.dtd">
<svg version="1.0" xmlns="http://www.w3.org/2000/svg"
 width="600.000000pt" height="600.000000pt" viewBox="0 0 600.000000 600.000000"
 preserveAspectRatio="xMidYMid meet">
<g transform="translate(0.000000,600.000000) scale(0.100000,-0.100000)"
fill="#000000" stroke="none">
<path d="M1743 3996 c-85 -72 -152 -369 -175 -783 -30 -532 53 -1106 174
-1208 25 -21 40 -25 95 -25 75 0 107 15 142 66 29 42 75 174 95 274 18 90 46
309 46 363 l0 39 -43 -6 c-80 -12 -96 26 -104 249 -5 162 12 289 42 311 9 7
35 9 62 6 l46 -5 -7 94 c-17 209 -68 445 -120 547 -40 79 -66 96 -150 100 -66
4 -75 2 -103 -22z"/>
<path d="M4007 4004 c-79 -43 -157 -291 -186 -588 -15 -152 -18 -139 35 -133
88 10 99 -23 99 -298 0 -170 -2 -194 -20 -230 l-20 -40 -54 4 -53 3 7 -83 c24
-298 92 -554 165 -624 26 -25 41 -30 95 -33 35 -2 76 -1 90 2 73 18 148 247
185 566 18 153 24 577 11 750 -28 367 -93 628 -173 695 -25 21 -40 25 -91 25
-35 -1 -74 -7 -90 -16z"/>
<path d="M1317 3725 c-56 -55 -97 -359 -97 -715 0 -378 38 -673 96 -735 22
-24 28 -25 134 -25 88 0 110 3 110 14 0 8 -9 65 -19 128 -60 347 -57 923 4
1246 8 42 15 83 15 90 0 19 -224 17 -243 -3z"/>
<path d="M4373 3718 c41 -168 61 -409 61 -733 0 -293 -15 -482 -50 -648 -8
-38 -14 -73 -14 -78 0 -5 49 -9 110 -9 103 0 113 2 134 23 47 47 80 229 98
534 21 361 -22 806 -88 911 -14 21 -21 22 -135 22 -121 0 -121 0 -116 -22z"/>
<path d="M1006 3418 c-72 -112 -71 -760 0 -839 14 -16 32 -19 97 -19 64 0 78
3 74 14 -3 8 -11 88 -18 177 -11 157 -8 429 7 612 l7 77 -76 0 c-68 0 -78 -2
-91 -22z"/>
<path d="M4767 3353 c10 -112 10 -602 0 -710 l-7 -83 74 0 c84 0 100 9 115 68
36 132 40 561 7 706 -22 97 -33 106 -123 106 l-74 0 8 -87z"/>
<path d="M2062 3183 c-9 -23 -9 -343 0 -365 7 -17 60 -18 907 -18 l900 0 7 58
c10 72 7 267 -4 307 l-8 30 -898 3 c-847 2 -897 1 -904 -15z"/>
</g>
</svg>
