<?xml version="1.0" standalone="no"?>
<!DOCTYPE svg PUBLIC "-//W3C//DTD SVG 20010904//EN"
 "http://www.w3.org/TR/2001/REC-SVG-20010904/DTD/svg10.dtd">
<svg version="1.0" xmlns="http://www.w3.org/2000/svg"
 width="600.000000pt" height="600.000000pt" viewBox="0 0 600.000000 600.000000"
 preserveAspectRatio="xMidYMid meet">
<g transform="translate(0.000000,600.000000) scale(0.050000,-0.050000)"
fill="#000000" stroke="none">
<path d="M4013 8687 c-7 -8 -13 -260 -13 -560 l0 -546 -575 -6 -575 -5 -6
-330 c-3 -181 0 -350 6 -375 l11 -45 569 0 569 0 6 -555 5 -555 370 0 370 0 5
555 6 554 564 6 565 5 0 370 0 370 -565 5 -565 6 0 547 c0 481 -4 549 -32 560
-43 16 -698 15 -715 -1z"/>
<path d="M7988 8205 c-220 -261 -624 -740 -899 -1065 -276 -324 -797 -941
-1159 -1370 -362 -429 -780 -923 -929 -1099 -149 -175 -429 -503 -621 -730
-193 -226 -371 -438 -397 -471 l-46 -59 62 -56 c34 -30 70 -55 80 -55 17 0
919 1056 2322 2720 367 435 915 1083 1218 1440 304 358 623 736 710 840 87
105 172 207 190 227 29 35 -64 153 -120 153 -6 0 -191 -214 -411 -475z"/>
<path d="M6393 4867 c-7 -8 -13 -174 -13 -370 l0 -357 1350 0 1351 0 -6 365
-5 365 -1332 5 c-732 3 -1337 -1 -1345 -8z"/>
</g>
</svg>
