<?xml version="1.0" standalone="no"?>
<!DOCTYPE svg PUBLIC "-//W3C//DTD SVG 20010904//EN"
 "http://www.w3.org/TR/2001/REC-SVG-20010904/DTD/svg10.dtd">
<svg version="1.0" xmlns="http://www.w3.org/2000/svg"
 width="1539.000000pt" height="1782.000000pt" viewBox="0 0 1539.000000 1782.000000"
 preserveAspectRatio="xMidYMid meet">
<g transform="translate(0.000000,1782.000000) scale(0.100000,-0.100000)"
fill="#000000" stroke="none">
<path d="M5963 17487 c-64 -36 -407 -236 -443 -257 -8 -5 -40 -24 -70 -41 -30
-18 -103 -61 -161 -96 -59 -34 -109 -63 -112 -63 -3 0 -29 -16 -58 -36 -30
-20 -67 -43 -84 -51 -37 -17 -36 -17 -225 -131 -85 -51 -164 -98 -175 -105
-11 -7 -39 -24 -63 -39 -24 -16 -45 -28 -46 -28 -2 0 -82 -46 -177 -103 -96
-57 -181 -106 -189 -110 -8 -4 -31 -17 -50 -28 -148 -89 -301 -179 -305 -179
-2 0 -21 -12 -42 -26 -21 -14 -47 -30 -58 -35 -11 -5 -33 -18 -50 -29 -16 -11
-37 -23 -45 -27 -8 -4 -81 -47 -162 -95 -81 -48 -150 -88 -152 -88 -3 0 -25
-13 -49 -30 -25 -16 -48 -30 -51 -30 -3 0 -36 -18 -72 -41 -37 -22 -77 -45
-88 -50 -12 -5 -34 -18 -51 -29 -16 -11 -37 -23 -45 -27 -8 -4 -81 -47 -162
-95 -81 -48 -149 -88 -152 -88 -4 0 -392 -228 -426 -251 -8 -5 -23 -12 -32
-15 -10 -4 -18 -10 -18 -14 0 -5 -9 -12 -21 -15 -11 -4 -57 -29 -102 -56 -45
-28 -91 -56 -102 -62 -10 -7 -37 -23 -60 -37 -22 -13 -49 -30 -60 -37 -11 -7
-29 -17 -40 -23 -11 -6 -33 -19 -50 -30 -16 -11 -39 -24 -50 -29 -11 -5 -37
-21 -58 -35 -21 -14 -40 -26 -42 -26 -2 0 -71 -40 -154 -90 -84 -49 -153 -90
-156 -90 -2 0 -23 -13 -47 -29 -24 -16 -61 -39 -83 -51 -53 -28 -71 -39 -342
-201 -128 -77 -235 -139 -238 -139 -3 0 -24 -12 -48 -27 -46 -30 -59 -38 -131
-77 -27 -14 -55 -35 -63 -45 l-13 -20 10 -6 c6 -4 17 -21 25 -38 8 -18 23 -44
32 -59 10 -15 63 -105 117 -200 55 -95 107 -184 117 -198 9 -14 58 -97 109
-185 51 -88 100 -173 110 -190 60 -103 126 -214 183 -310 36 -60 121 -206 189
-323 68 -118 128 -221 133 -230 6 -9 37 -64 70 -120 33 -57 70 -120 83 -140
12 -21 25 -44 29 -52 3 -8 16 -28 27 -45 12 -16 28 -42 36 -56 51 -89 104
-179 123 -210 87 -144 215 -354 227 -373 8 -14 38 -61 65 -106 28 -45 60 -98
73 -118 12 -21 32 -54 45 -76 12 -21 27 -46 32 -55 6 -9 26 -42 45 -75 19 -32
45 -75 58 -95 12 -20 31 -52 42 -71 12 -19 32 -53 45 -75 32 -54 60 -101 93
-156 80 -135 106 -178 132 -219 16 -25 36 -58 44 -75 9 -16 49 -84 91 -150 41
-66 79 -130 85 -143 5 -12 28 -50 50 -83 22 -33 40 -63 40 -66 0 -2 16 -32 36
-66 20 -34 44 -75 54 -92 9 -16 45 -77 79 -133 33 -57 61 -105 61 -107 0 -2
13 -23 29 -47 16 -24 39 -61 51 -83 12 -22 44 -76 71 -120 26 -44 68 -113 91
-153 52 -89 56 -96 89 -147 14 -22 29 -47 32 -55 4 -8 16 -28 27 -45 11 -16
31 -50 45 -75 14 -25 48 -79 75 -120 28 -41 57 -89 65 -106 7 -17 21 -36 29
-43 27 -22 27 -54 16 -1036 -5 -528 -12 -1954 -14 -3170 -2 -1215 -5 -2551 -6
-2968 -1 -418 1 -761 3 -764 6 -6 7927 -6 7933 0 5 4 9 5513 5 6932 -1 490 -2
895 -1 902 0 6 12 18 28 25 26 13 243 144 300 180 15 10 36 22 47 28 11 6 88
53 170 105 120 75 392 243 499 308 11 7 49 31 84 55 35 23 65 42 68 42 2 0 23
12 47 27 23 15 57 36 76 46 19 10 52 31 75 45 70 45 80 51 99 58 9 3 17 10 17
14 0 5 12 13 28 19 15 7 117 68 227 136 236 146 619 380 678 414 23 13 61 37
85 52 24 16 45 29 49 29 3 0 24 13 47 28 22 15 48 31 56 35 8 4 27 15 42 25
14 9 146 89 291 177 l265 160 10 21 10 20 -34 70 c-36 74 -61 118 -169 297
-38 64 -77 129 -85 144 -9 15 -34 55 -55 88 -22 33 -42 65 -45 70 -8 16 -69
116 -98 162 -15 23 -49 78 -77 122 -27 45 -62 100 -77 124 -15 23 -36 58 -48
77 -11 19 -31 53 -44 75 -14 22 -36 58 -49 80 -13 22 -59 96 -101 165 -42 69
-83 134 -89 144 -7 11 -24 38 -39 59 -16 22 -28 44 -28 48 0 4 -20 37 -45 73
-25 37 -45 68 -45 71 0 2 -13 24 -29 47 -27 41 -115 175 -136 209 -5 9 -19 29
-29 45 -28 42 -55 86 -121 195 -6 9 -19 29 -29 45 -19 29 -38 58 -92 146 -122
196 -117 188 -315 495 -42 65 -93 146 -115 181 -117 188 -104 182 -215 115
-45 -26 -100 -59 -122 -72 -23 -13 -61 -37 -85 -52 -24 -16 -45 -29 -48 -29
-2 0 -23 -12 -47 -27 -61 -40 -80 -51 -102 -62 -11 -5 -36 -20 -55 -33 -19
-13 -42 -27 -50 -31 -8 -4 -28 -16 -45 -27 -16 -11 -39 -24 -50 -30 -11 -6
-32 -18 -46 -28 -15 -9 -136 -83 -270 -163 -317 -191 -311 -187 -334 -199 -11
-6 -43 -25 -72 -43 -29 -18 -152 -93 -273 -167 -121 -74 -232 -142 -245 -150
-13 -8 -64 -39 -112 -69 -48 -30 -117 -73 -153 -95 -36 -23 -74 -46 -85 -53
-11 -7 -107 -65 -213 -130 -106 -65 -212 -129 -235 -142 -23 -13 -61 -37 -85
-52 -24 -16 -45 -29 -49 -29 -3 0 -24 -13 -47 -28 -22 -15 -48 -31 -56 -35 -8
-4 -27 -15 -42 -25 -50 -32 -219 -137 -237 -147 -11 -6 -26 -17 -34 -24 -9 -7
-26 -11 -38 -9 l-21 3 -35 65 c-20 36 -44 77 -54 92 -11 14 -19 28 -19 31 0 4
-99 171 -199 337 -5 8 -40 66 -78 127 -37 62 -75 125 -83 140 -9 16 -33 55
-54 87 -20 32 -41 69 -46 80 -4 12 -15 28 -24 35 -9 7 -16 17 -16 21 0 4 -18
37 -39 71 -46 74 -128 212 -148 250 -7 15 -20 32 -28 39 -8 7 -15 21 -15 31 0
10 -4 20 -9 24 -6 3 -28 38 -51 78 -23 39 -64 110 -92 157 -28 47 -60 102 -72
122 -11 21 -58 98 -103 172 -46 75 -83 138 -83 140 0 3 -17 31 -38 63 -22 32
-45 70 -53 85 -8 15 -48 82 -89 148 -41 67 -81 134 -89 148 -8 15 -17 29 -21
32 -4 3 -18 25 -31 49 -36 65 -44 79 -61 98 -9 10 -17 23 -19 28 -5 13 -61
106 -100 165 -16 25 -35 56 -42 70 -7 14 -25 45 -42 70 -16 25 -39 63 -52 85
-12 22 -32 56 -43 75 -12 19 -32 53 -45 75 -13 22 -33 56 -44 76 -11 19 -27
41 -35 48 -9 8 -16 20 -16 28 0 8 -10 29 -23 46 -12 18 -27 41 -34 52 -6 11
-33 55 -60 99 -26 43 -59 98 -73 121 -14 24 -54 91 -90 149 -123 202 -153 251
-223 371 -38 66 -77 134 -85 150 -9 17 -22 36 -29 43 -7 7 -13 18 -13 24 0 6
-11 26 -25 44 -14 18 -25 35 -25 38 0 3 -12 22 -26 43 -14 21 -30 47 -35 58
-6 11 -15 29 -22 40 -7 11 -24 38 -37 60 -14 23 -30 50 -37 60 -6 11 -53 88
-103 170 -50 83 -97 159 -103 170 -7 11 -22 34 -34 52 -13 17 -23 34 -23 36 0
3 -18 34 -39 68 -130 210 -201 330 -201 338 0 29 -54 47 -87 28z m82 -282
c201 -337 231 -388 245 -410 8 -13 62 -102 119 -197 129 -216 230 -379 298
-483 29 -44 53 -85 53 -90 0 -10 -52 -43 -170 -108 -25 -14 -103 -59 -173
-101 -71 -42 -130 -76 -133 -76 -3 0 -17 -8 -32 -19 -25 -17 -416 -248 -465
-275 -12 -6 -40 -23 -62 -36 -23 -14 -50 -30 -60 -37 -11 -6 -57 -35 -101 -62
-45 -28 -91 -51 -102 -51 l-20 0 -58 103 c-80 142 -532 893 -637 1059 -101
159 -98 148 -49 175 42 24 84 47 192 108 41 23 149 86 240 140 91 54 188 111
215 126 28 15 174 102 325 193 151 91 281 164 289 163 8 -1 47 -56 86 -122z
m-1481 -760 c8 -8 29 -41 47 -72 17 -32 44 -78 59 -103 15 -25 67 -112 116
-195 49 -82 93 -157 99 -166 5 -9 20 -34 33 -55 13 -22 37 -63 55 -91 18 -29
61 -101 96 -160 35 -60 71 -119 80 -132 9 -13 21 -31 26 -40 6 -8 41 -62 78
-119 77 -117 77 -118 11 -152 -27 -14 -88 -49 -137 -77 -48 -29 -90 -53 -93
-53 -4 0 -55 -29 -114 -65 -59 -36 -111 -65 -115 -65 -5 0 -22 -10 -39 -23
-17 -12 -51 -33 -76 -46 -25 -13 -67 -38 -95 -56 -27 -17 -132 -81 -233 -141
-100 -60 -195 -117 -210 -126 -15 -10 -43 -26 -63 -37 l-37 -20 -14 17 c-8 9
-43 69 -78 132 -35 63 -93 164 -129 223 -98 161 -97 160 -195 324 -81 136
-123 205 -236 388 -17 28 -48 77 -70 110 -21 33 -39 65 -39 72 -1 10 161 115
209 134 8 4 91 52 183 108 93 55 170 101 173 101 6 0 227 129 284 166 54 34
191 114 197 114 3 0 25 14 50 30 24 17 47 30 51 30 4 0 25 14 46 30 45 34 58
36 80 15z m2279 -617 c34 -54 150 -248 185 -309 10 -19 44 -74 74 -124 30 -49
126 -209 214 -355 89 -146 174 -285 191 -310 16 -25 39 -61 52 -82 l21 -36
-51 -32 c-29 -17 -61 -36 -73 -41 -12 -5 -28 -13 -36 -19 -41 -27 -252 -150
-257 -150 -3 0 -53 -29 -112 -64 -58 -35 -120 -72 -138 -82 -17 -11 -124 -75
-238 -144 -113 -69 -215 -130 -226 -136 -11 -7 -26 -17 -32 -23 -6 -6 -19 -11
-29 -11 l-17 0 -3 153 -3 152 -137 3 -136 3 -10 12 c-10 12 -17 24 -108 187
-29 52 -77 136 -108 185 -31 50 -62 104 -71 120 -8 17 -39 68 -69 115 -30 47
-72 114 -94 150 -22 36 -52 80 -66 99 l-25 34 8 16 c5 9 35 30 68 47 107 57
247 136 336 190 49 30 92 54 96 54 4 0 26 12 47 28 21 15 50 33 64 40 14 7 34
18 45 25 11 7 81 48 155 92 74 44 143 84 152 90 9 5 79 47 154 93 76 45 139
82 140 82 2 0 18 -24 37 -52z m-3615 -286 c40 -70 77 -134 82 -142 23 -36 265
-439 289 -480 52 -91 148 -245 244 -392 105 -162 106 -166 55 -192 -18 -9 -60
-32 -93 -51 -33 -20 -69 -40 -80 -46 -11 -5 -29 -15 -40 -22 -11 -7 -52 -30
-90 -52 -39 -22 -79 -45 -90 -52 -11 -7 -27 -16 -35 -20 -8 -4 -70 -40 -138
-80 -68 -40 -125 -73 -128 -73 -2 0 -23 -13 -46 -30 -22 -16 -44 -30 -49 -30
-4 0 -57 -30 -118 -67 -62 -38 -122 -74 -134 -81 -12 -7 -34 -21 -49 -30 -14
-9 -47 -30 -73 -45 l-47 -29 -22 6 -23 6 -38 72 c-43 83 -466 790 -622 1039
-56 91 -103 172 -103 180 l0 14 108 60 c59 33 136 76 172 96 36 20 141 82 234
138 92 55 170 101 173 101 4 0 419 249 521 312 15 9 36 17 47 17 l20 1 73
-128z m2213 -504 c34 -69 343 -583 421 -701 l71 -109 -14 -9 c-8 -5 -41 -9
-75 -9 l-61 0 -149 -152 c-82 -84 -248 -258 -368 -385 -121 -128 -225 -233
-233 -233 -8 0 -187 173 -398 385 l-384 385 -28 0 c-36 0 -43 6 -81 59 l-31
43 9 18 c5 10 22 23 37 29 16 6 46 21 68 34 22 13 60 35 85 48 132 75 235 135
422 246 114 68 209 123 212 123 3 0 22 12 43 26 21 14 47 30 58 35 11 5 29 15
40 21 17 12 37 24 120 75 11 7 29 17 40 23 11 5 47 28 80 49 33 22 68 40 77
40 l18 1 21 -42z m-3572 -376 c76 -132 171 -293 211 -357 8 -13 62 -102 119
-197 97 -161 153 -253 206 -338 84 -132 116 -180 125 -185 23 -14 5 -33 -77
-81 -49 -28 -133 -77 -188 -109 -55 -32 -116 -67 -135 -77 -41 -22 -49 -26
-287 -169 -99 -60 -184 -109 -188 -109 -4 0 -21 -10 -38 -22 -39 -28 -65 -44
-95 -57 -12 -6 -48 -27 -80 -48 -177 -116 -173 -116 -234 -6 -24 43 -47 85
-53 94 -5 9 -23 40 -40 68 -16 29 -51 86 -78 126 -26 41 -47 76 -47 79 0 3
-19 36 -43 73 -24 38 -68 110 -98 161 -30 51 -61 104 -69 117 -8 13 -72 120
-142 236 l-128 212 11 13 c9 11 156 99 369 223 30 17 62 36 70 41 36 23 319
189 355 209 22 12 47 26 55 31 8 6 94 57 190 115 l175 104 25 1 25 0 84 -148z
m5828 -184 c9 -11 33 -54 87 -153 6 -11 87 -146 179 -300 93 -154 174 -289
180 -300 6 -11 23 -38 36 -60 14 -22 31 -49 37 -60 24 -43 150 -244 196 -315
l49 -74 -5 -22 -6 -22 -27 -11 c-16 -6 -35 -15 -43 -21 -8 -5 -73 -44 -145
-85 -71 -41 -137 -80 -145 -85 -8 -6 -22 -13 -30 -17 -8 -4 -92 -53 -188 -110
-95 -57 -175 -103 -177 -103 -2 0 -24 -13 -48 -30 -25 -16 -47 -30 -50 -30 -7
0 -324 -190 -395 -237 l-52 -34 -18 5 c-9 3 -37 43 -61 88 -45 83 -424 717
-485 812 -18 28 -77 121 -130 206 l-96 154 0 27 c0 31 16 46 95 89 91 50 482
277 535 310 8 6 24 14 35 19 11 6 155 91 320 190 292 175 332 195 352 169z
m-3115 -808 l422 -420 26 0 25 0 158 162 c88 90 250 257 360 373 111 115 223
231 248 257 l46 48 176 0 176 0 6 -10 c8 -14 6 -2183 -3 -2191 -6 -6 -272 -14
-320 -10 l-13 1 2 878 2 877 -26 3 -26 3 -15 -28 c-8 -15 -30 -44 -48 -64 -18
-20 -51 -58 -73 -85 -67 -80 -123 -144 -225 -254 -54 -58 -119 -130 -145 -160
-26 -30 -75 -86 -110 -125 -34 -38 -88 -100 -119 -137 l-57 -68 -18 0 c-10 0
-36 19 -56 43 -21 23 -77 83 -124 133 -47 49 -122 130 -166 179 -93 103 -209
229 -245 265 -26 25 -201 221 -245 273 -13 16 -31 27 -39 25 l-15 -3 -5 -864
-5 -863 -10 -12 -10 -11 -140 -4 -141 -3 -1 14 c0 12 0 2189 1 2196 0 1 74 2
165 2 l166 0 421 -420z m-889 -476 l-3 -857 -10 -12 c-5 -6 -42 -31 -81 -54
l-70 -42 -22 3 -21 3 -59 105 c-82 147 -204 355 -242 415 -18 28 -82 134 -143
237 -62 103 -155 253 -207 333 -51 79 -95 152 -97 161 l-3 17 35 20 c19 11 58
32 85 47 28 15 93 53 145 84 52 30 106 61 120 68 21 11 223 129 270 158 8 5
60 36 115 70 55 33 111 69 125 80 14 11 34 20 45 20 l20 0 -2 -856z m9109 369
c8 -10 27 -40 42 -68 31 -54 85 -142 152 -245 23 -36 91 -143 150 -238 60 -95
126 -198 146 -230 20 -31 49 -76 63 -100 l27 -44 -18 -19 c-18 -20 -176 -119
-191 -119 -4 0 -26 -14 -47 -30 -22 -17 -43 -30 -47 -30 -4 0 -34 -18 -67 -40
-33 -22 -63 -40 -67 -40 -3 0 -71 -43 -150 -95 -79 -52 -150 -95 -159 -95
l-16 0 -19 43 c-27 61 -65 152 -97 230 -15 37 -32 71 -39 77 l-11 10 -169 2
-168 3 -81 135 c-45 74 -110 178 -145 230 l-63 95 9 14 c5 8 18 19 29 25 10 6
33 21 51 33 17 13 35 23 38 23 8 0 183 105 265 158 30 20 71 45 91 56 21 12
131 78 246 148 224 137 223 137 245 111z m-10145 -212 c64 -118 604 -1013 675
-1119 l69 -104 -12 -14 c-9 -12 -187 -116 -259 -152 -14 -7 -38 -21 -55 -32
-16 -11 -37 -23 -45 -27 -8 -4 -69 -39 -135 -78 -66 -40 -127 -75 -135 -78 -8
-4 -28 -16 -45 -26 -16 -11 -48 -29 -70 -41 -22 -12 -59 -35 -83 -51 -24 -16
-45 -29 -47 -29 -2 0 -94 -54 -205 -121 l-201 -120 -17 3 c-9 2 -27 23 -41 48
-23 45 -208 363 -246 426 -11 18 -69 115 -129 216 -134 225 -232 385 -308 502
-32 49 -58 97 -58 106 l0 15 38 20 c20 11 81 46 135 77 54 32 100 58 102 58 1
0 81 46 176 103 96 57 181 106 189 109 8 4 157 92 330 196 173 104 321 187
328 185 7 -3 29 -35 49 -72z m3794 -78 c28 -53 75 -136 103 -183 29 -47 65
-110 80 -140 16 -30 34 -62 41 -70 7 -8 40 -62 74 -120 35 -58 96 -157 137
-220 41 -63 82 -129 91 -147 l16 -32 -11 -14 c-11 -13 -186 -117 -197 -117 -6
0 -280 -165 -343 -207 l-54 -35 -8 8 -9 9 -1 675 c-1 371 -1 678 0 683 0 4 6
7 14 7 l14 0 53 -97z m-2056 -85 c50 -56 128 -142 174 -190 l83 -88 -6 -15
c-3 -9 -14 -18 -23 -22 -27 -10 -194 -104 -228 -129 -45 -32 -102 -57 -115
-49 l-12 7 4 142 c1 77 2 204 0 281 -2 77 -3 146 -2 153 0 6 8 12 18 12 l17 0
90 -102z m1358 -659 l-1 -754 10 -12 10 -13 89 0 c131 0 129 -4 -79 -117 -61
-33 -60 -34 -143 114 -34 59 -154 269 -185 323 -60 104 -180 299 -284 463
l-43 68 24 27 c13 15 36 40 51 57 15 16 37 41 48 55 12 14 60 67 108 119 48
52 94 104 103 118 8 13 22 29 31 36 8 6 48 53 88 102 93 115 152 176 164 172
l10 -3 -1 -755z m2833 354 c185 -313 520 -866 607 -1002 37 -58 67 -108 67
-111 0 -6 -88 -58 -115 -69 -5 -2 -58 -32 -118 -67 -59 -35 -110 -64 -113 -64
-2 0 -17 -8 -32 -19 -41 -28 -270 -161 -277 -161 -3 0 -18 -8 -33 -19 -15 -10
-150 -91 -300 -181 l-274 -162 -19 18 c-11 10 -43 58 -71 108 -73 128 -429
724 -494 826 -151 234 -194 306 -191 315 3 9 22 21 125 76 112 61 464 266 650
378 152 91 166 100 182 107 30 15 215 128 220 134 9 13 65 39 82 40 l16 0 88
-147z m3159 -15 c26 -46 88 -144 137 -219 l88 -136 -41 -88 c-65 -140 -303
-707 -355 -845 -34 -93 -42 -102 -133 -162 -104 -68 -86 -79 -211 132 -34 58
-103 171 -153 252 -51 81 -110 176 -131 210 -22 35 -82 128 -133 206 -52 79
-92 150 -90 157 5 11 51 40 197 122 19 11 89 54 155 95 66 41 175 108 243 149
68 41 134 81 147 89 13 8 55 35 94 59 39 24 74 47 77 52 3 5 18 9 33 9 l28 0
48 -82z m-6924 -140 c61 -69 144 -161 174 -192 12 -12 88 -133 170 -271 165
-278 380 -627 427 -693 l30 -44 -8 -8 c-5 -4 -40 -25 -79 -46 -38 -20 -83 -46
-100 -56 -16 -10 -37 -21 -45 -25 -8 -4 -58 -32 -110 -63 -52 -31 -102 -59
-110 -63 -8 -4 -28 -16 -45 -27 -16 -11 -39 -24 -50 -30 -24 -12 -15 -7 -384
-229 -161 -97 -302 -181 -314 -188 l-21 -12 -15 9 c-9 5 -58 82 -110 172 -52
90 -118 201 -146 248 -162 263 -282 454 -315 501 -11 15 -16 29 -13 33 4 3
123 6 265 6 l258 0 0 13 c3 86 -1 469 -6 593 l-7 162 25 13 c14 8 48 26 75 41
27 14 91 52 141 82 50 31 93 56 96 56 3 0 31 18 63 39 32 22 68 40 79 40 l22
1 53 -62z m8754 -390 c54 -90 117 -192 140 -228 23 -36 84 -132 136 -215 52
-82 127 -199 168 -259 l73 -110 -9 -15 c-10 -16 -19 -22 -141 -93 -88 -52 -96
-56 -147 -89 -22 -14 -47 -29 -55 -32 -8 -4 -27 -15 -41 -25 -25 -16 -298
-184 -337 -207 -9 -5 -57 -37 -106 -69 l-89 -59 -15 9 c-8 5 -21 27 -29 49
-22 58 -113 284 -133 330 -10 22 -62 139 -115 260 -53 121 -119 267 -146 324
-56 118 -58 128 -26 141 12 6 38 20 57 31 61 36 470 283 495 299 13 8 55 35
94 59 39 24 74 47 77 52 3 5 16 9 28 9 l24 0 97 -162z m-1202 37 c9 -8 21 -32
28 -52 6 -20 22 -58 34 -83 12 -25 46 -101 75 -170 28 -69 58 -138 65 -155 7
-16 34 -82 60 -145 26 -63 74 -175 106 -248 33 -74 59 -136 59 -139 0 -3 16
-40 36 -82 20 -42 54 -116 76 -166 22 -49 50 -112 63 -140 13 -27 38 -81 55
-120 32 -70 64 -142 134 -305 20 -47 43 -97 51 -111 30 -55 125 -284 125 -301
l0 -19 -155 3 -155 2 -19 20 c-17 19 -71 121 -175 333 l-40 81 -30 4 c-17 1
-283 1 -590 -2 l-559 -5 -10 -30 c-14 -44 -136 -356 -149 -382 l-11 -23 -107
0 c-59 0 -128 3 -154 6 l-46 7 0 11 c0 11 74 194 109 271 30 64 126 299 194
475 103 266 142 358 208 497 21 44 39 83 39 86 0 3 18 45 40 92 22 47 40 88
40 91 0 3 23 57 51 122 64 147 106 249 180 432 l58 144 18 7 c10 4 77 8 150 8
l132 1 14 -15z m-1724 -154 c12 -16 21 -32 21 -36 0 -23 405 -663 545 -861
l10 -14 -10 -16 c-6 -8 -32 -28 -60 -43 -149 -82 -225 -126 -265 -152 -39 -26
-166 -104 -527 -325 l-93 -56 -14 5 c-8 3 -47 59 -85 124 -39 65 -97 160 -129
210 -138 222 -207 332 -243 386 -22 32 -39 60 -39 62 0 3 -23 37 -51 76 -28
39 -53 77 -55 84 l-5 13 321 194 c177 106 332 200 344 208 13 8 52 32 87 53
35 21 91 56 124 77 33 21 70 39 82 39 l22 1 20 -29z m-3522 -41 c70 -127 135
-238 207 -355 43 -71 94 -155 111 -185 39 -67 98 -164 283 -467 78 -127 142
-235 142 -240 0 -5 -24 -21 -52 -36 -29 -16 -71 -38 -93 -51 -22 -12 -62 -35
-90 -50 -27 -16 -120 -70 -205 -120 -85 -51 -162 -96 -170 -99 -8 -4 -28 -16
-45 -27 -16 -11 -37 -23 -45 -27 -26 -12 -493 -293 -522 -314 -15 -10 -39 -19
-53 -19 l-25 0 -28 51 c-15 28 -39 69 -53 92 -14 23 -87 146 -163 272 -215
360 -386 641 -459 753 -37 57 -67 112 -67 123 l0 19 23 9 c13 5 54 28 91 50
36 23 68 41 71 41 2 0 49 26 102 58 54 32 109 65 123 73 14 7 54 16 90 19 l65
5 5 38 5 37 25 14 c103 54 140 75 388 225 106 64 202 121 213 127 12 7 26 17
32 23 7 7 25 11 41 9 l28 -3 25 -45z m-3422 -160 l0 -145 -20 0 -20 0 -62 105
c-70 117 -70 118 -45 127 9 4 35 20 57 35 l40 28 25 -3 25 -2 0 -145z m-218
-82 c16 -24 37 -59 48 -79 41 -75 126 -225 135 -239 5 -8 31 -53 58 -100 27
-47 89 -152 138 -234 49 -82 103 -172 119 -200 17 -28 43 -71 59 -96 83 -130
141 -218 159 -244 l20 -30 -23 -15 c-23 -16 -145 -86 -257 -147 -35 -18 -80
-44 -100 -57 -21 -13 -45 -27 -53 -31 -8 -4 -51 -29 -95 -56 -44 -26 -129 -77
-190 -112 -188 -109 -208 -121 -373 -220 -88 -54 -166 -98 -174 -98 -17 0 -26
13 -243 375 -245 409 -373 621 -415 690 -14 22 -27 45 -30 50 -3 6 -22 36 -43
68 -21 32 -37 65 -35 73 2 13 78 62 138 91 16 7 184 106 210 123 8 6 26 16 40
22 22 11 232 134 270 158 8 5 44 26 80 46 123 70 185 108 188 116 2 4 9 8 16
8 11 0 158 91 241 150 22 16 50 29 62 29 l23 1 27 -42z m6006 -340 c30 -46 56
-90 60 -98 3 -8 33 -58 66 -110 33 -52 82 -130 108 -173 26 -42 59 -95 73
-116 14 -22 48 -76 75 -120 28 -45 62 -100 77 -124 15 -23 37 -58 48 -77 11
-19 45 -73 75 -120 30 -47 58 -92 62 -100 3 -8 18 -33 32 -55 14 -22 30 -47
36 -56 5 -9 22 -38 38 -65 15 -27 35 -61 45 -76 9 -14 39 -62 66 -105 26 -43
57 -90 67 -105 11 -15 19 -30 19 -34 0 -4 10 -21 23 -38 13 -17 27 -38 31 -46
3 -8 21 -38 39 -67 18 -29 52 -85 77 -125 24 -40 47 -75 51 -78 3 -3 12 -16
19 -30 7 -14 46 -77 88 -140 80 -123 97 -149 158 -248 76 -122 97 -157 108
-177 6 -11 33 -54 60 -95 27 -41 61 -94 75 -117 67 -109 132 -209 213 -332 49
-74 87 -138 86 -143 l-3 -8 -3785 -1 c-4391 0 -3810 -1 -3810 10 0 9 36 32
145 91 71 39 110 61 133 75 10 6 49 27 87 49 62 34 264 152 305 177 8 5 29 16
45 25 17 9 201 119 410 244 209 125 407 242 440 260 33 18 67 39 76 46 8 8 18
14 21 14 3 0 84 46 179 103 96 57 181 106 189 110 8 4 29 16 45 27 17 11 39
24 50 30 11 6 36 20 55 31 120 72 373 221 415 244 28 15 57 34 66 41 8 8 18
14 22 14 3 0 40 20 80 45 41 25 77 45 80 45 4 0 48 25 99 56 50 31 101 60 113
65 11 5 34 18 50 29 17 11 37 23 45 27 8 4 67 38 130 76 63 38 124 73 135 78
11 5 34 18 50 29 17 11 39 24 50 30 11 5 27 14 35 20 34 23 570 340 575 340 2
0 21 12 42 26 21 14 47 30 58 35 11 5 27 13 35 19 38 24 206 123 225 131 11 5
34 18 50 29 17 11 37 23 45 27 8 4 58 32 110 63 52 31 102 59 110 63 8 4 29
16 45 27 17 11 37 23 45 27 8 4 69 39 135 78 66 39 127 75 135 78 8 4 29 16
45 27 17 11 39 24 50 30 28 15 51 29 127 78 37 23 70 42 72 42 3 0 22 11 42
25 20 14 45 25 56 25 l18 0 53 -82z m-3790 -230 c8 -13 35 -61 61 -108 61
-112 191 -332 246 -420 5 -8 49 -80 97 -160 114 -190 172 -285 261 -425 l74
-115 -5 -14 c-3 -8 -18 -20 -34 -28 -101 -52 -316 -178 -875 -511 -183 -109
-339 -196 -347 -195 -13 3 -116 167 -142 228 -5 13 -14 27 -18 30 -7 4 -76
119 -140 233 -13 23 -38 65 -55 92 -18 28 -36 57 -39 65 -4 8 -20 34 -35 57
-15 23 -56 91 -91 150 -35 60 -101 164 -146 233 -46 69 -88 136 -95 149 l-13
25 23 15 c13 9 59 36 104 60 45 24 145 81 223 127 78 46 144 84 147 84 4 0
314 183 356 210 8 5 35 21 60 35 39 22 146 86 190 115 8 5 39 23 67 40 29 17
55 35 58 41 4 5 17 9 30 9 l25 0 13 -22z m8491 -65 c24 -38 51 -81 60 -98 10
-16 28 -48 41 -70 13 -22 34 -56 45 -75 11 -19 38 -62 60 -95 21 -33 62 -98
91 -145 28 -47 57 -92 64 -100 29 -34 185 -301 181 -309 -5 -7 -122 -80 -215
-132 -25 -15 -82 -49 -126 -77 -44 -28 -127 -79 -185 -114 -105 -62 -266 -164
-349 -220 l-43 -29 -21 3 -20 3 -113 175 c-268 413 -319 499 -390 652 l-62
137 16 14 c10 8 36 24 58 35 58 29 575 341 595 358 8 8 18 14 22 14 3 0 55 31
114 70 132 85 124 85 177 3z m-2882 -140 c8 -10 24 -34 36 -54 l22 -36 -54
-115 c-29 -63 -83 -184 -119 -269 -202 -477 -241 -568 -263 -611 -13 -26 -24
-52 -24 -58 l0 -10 308 0 308 0 16 13 c8 6 20 26 26 42 6 17 29 77 51 135 22
58 51 137 66 177 28 78 44 91 74 65 23 -20 161 -242 161 -259 0 -11 -51 -53
-65 -53 -3 0 -52 -29 -108 -64 -151 -94 -287 -176 -293 -176 -4 0 -25 -13 -48
-28 -22 -15 -48 -31 -56 -35 -8 -4 -28 -16 -45 -27 -16 -11 -37 -23 -45 -27
-8 -3 -33 -18 -55 -32 -22 -14 -48 -30 -57 -36 -10 -5 -64 -38 -120 -73 l-103
-64 -15 10 c-8 5 -35 42 -59 83 -161 269 -391 639 -487 785 -41 61 -74 114
-74 117 0 2 132 84 293 181 378 229 378 229 547 337 177 114 160 107 182 82z
m-6996 -625 c14 -24 42 -72 63 -108 105 -182 487 -815 578 -958 57 -89 103
-170 103 -180 l0 -17 -47 -25 c-64 -34 -269 -151 -368 -210 -44 -26 -98 -58
-120 -71 -133 -75 -156 -89 -288 -169 -60 -36 -116 -69 -125 -75 -58 -34 -138
-82 -157 -95 -92 -59 -150 -90 -168 -90 l-22 0 -34 63 c-95 176 -548 933 -684
1144 l-46 72 17 19 c15 17 115 82 126 82 2 0 71 40 152 88 82 49 156 91 164
95 8 4 22 11 30 17 38 25 371 220 376 220 3 0 25 14 49 30 24 17 46 30 50 30
3 0 24 12 48 27 56 37 79 51 96 59 8 4 44 27 80 51 36 23 74 43 84 43 l18 0
25 -42z m7969 -89 c8 -12 -12 -30 -75 -64 -25 -14 -74 -44 -109 -66 -80 -51
-87 -49 -140 38 l-43 72 5 16 6 15 175 0 175 0 6 -11z m419 -10 c14 -11 26
-27 26 -34 0 -8 26 -69 59 -137 32 -68 69 -148 81 -178 13 -30 28 -61 33 -67
l9 -13 299 0 299 0 13 -22 c8 -13 41 -67 75 -121 75 -119 75 -117 10 -153 -29
-16 -61 -33 -70 -39 -9 -5 -36 -21 -60 -34 -24 -13 -62 -36 -86 -52 -24 -16
-45 -29 -48 -29 -8 0 -449 -272 -552 -341 -89 -60 -93 -60 -130 -1 -16 26 -89
144 -161 262 -157 255 -184 297 -318 502 -57 86 -103 160 -103 163 0 9 43 44
54 45 9 0 340 199 401 242 l40 27 51 1 51 0 27 -21z m-663 -491 c51 -89 126
-214 174 -288 12 -19 64 -102 115 -185 51 -82 126 -200 167 -262 l75 -112 -7
-20 c-3 -11 -16 -23 -28 -27 -12 -3 -35 -16 -52 -28 -16 -13 -38 -25 -47 -29
-10 -3 -44 -23 -75 -44 -32 -20 -74 -46 -93 -56 -19 -10 -52 -30 -72 -43 -21
-13 -55 -34 -75 -47 -21 -13 -56 -35 -78 -49 -22 -13 -47 -28 -55 -32 -8 -4
-24 -12 -35 -19 -22 -13 -19 -12 -185 -119 -64 -42 -125 -78 -137 -82 l-21 -7
-30 43 c-16 24 -55 88 -87 143 -31 55 -111 186 -177 290 -66 105 -125 199
-131 210 -21 34 -119 188 -145 228 l-25 38 19 18 c10 10 93 62 184 116 91 54
167 101 170 105 3 4 12 9 20 13 8 4 31 17 51 29 20 13 99 61 175 108 77 46
179 110 229 142 49 32 97 58 106 58 l17 0 53 -92z m-5249 -1676 c8 -8 12
-1421 4 -1429 -7 -7 -1386 -7 -1392 0 -4 3 -5 324 -5 714 l2 708 13 10 13 10
678 -2 c374 -2 682 -6 687 -11z m3127 3 c3 -4 5 -266 3 -583 -1 -318 1 -637 5
-710 l8 -134 -11 -9 -11 -9 -719 2 -719 3 3 25 c1 14 4 337 5 719 l2 694 17 6
c23 8 1409 4 1417 -4z m-1587 -495 c-1 -261 1 -572 6 -690 5 -118 5 -219 1
-223 l-7 -9 -692 0 -693 1 -7 8 c-4 4 -3 94 2 198 l10 190 -6 496 c-3 273 -2
499 1 503 4 3 317 5 697 4 l691 -3 -3 -475z m3123 469 c10 -14 6 -1372 -4
-1382 -8 -8 -1369 -12 -1378 -4 -7 8 -4 1377 3 1388 l5 9 684 0 684 0 6 -11z
m-6210 -9 l10 0 0 -698 0 -697 -688 2 c-379 0 -691 4 -694 7 -6 5 -11 1385 -6
1390 2 1 310 1 685 -1 376 -2 688 -3 693 -3z m3111 -1533 c7 -7 7 -758 0 -764
-5 -5 -135 52 -201 89 -11 6 -33 15 -50 19 -16 4 -43 12 -60 17 -225 77 -553
90 -745 30 -19 -6 -51 -15 -70 -19 -50 -11 -110 -34 -202 -78 -45 -22 -86 -37
-92 -35 l-11 4 2 367 2 366 10 6 c10 7 1411 5 1417 -2z m3134 -5 c3 -4 2 -173
-3 -376 l-9 -369 9 -336 c5 -185 6 -339 3 -344 -3 -4 -332 -6 -730 -5 l-723 3
-1 718 c-1 394 2 718 6 720 20 6 1443 -4 1448 -11z m-6237 -714 l2 -718 -10
-2 c-5 -2 -327 -1 -715 2 l-705 5 1 40 c1 22 2 342 3 712 2 369 5 674 9 677 3
3 322 5 710 4 l704 -3 1 -717z m1536 705 c3 -4 4 -84 1 -178 -3 -93 -3 -271 0
-395 8 -264 14 -234 -61 -289 -163 -119 -310 -286 -443 -504 l-17 -27 -435 2
-436 3 -2 698 c0 383 2 698 6 700 5 1 317 1 694 0 l686 -1 7 -9z m3101 -5 c4
-71 0 -1381 -4 -1385 -7 -8 -900 -8 -913 0 -6 4 -27 35 -47 70 -80 141 -205
288 -354 412 l-76 64 2 417 c2 230 4 420 6 423 6 9 1386 7 1386 -1z m-2095
-708 c751 -123 1242 -743 1245 -1572 2 -629 -306 -1166 -819 -1429 -52 -27
-102 -49 -112 -49 -10 0 -20 -4 -23 -9 -3 -5 -23 -12 -43 -16 -21 -4 -42 -10
-48 -15 -11 -8 -93 -26 -200 -41 l-70 -11 -165 5 -165 5 -55 16 c-182 55 -243
77 -340 124 -47 23 -197 124 -240 163 -19 17 -44 39 -55 48 -135 108 -347 429
-400 606 -10 33 -24 74 -30 90 -7 17 -20 73 -30 125 -9 52 -21 115 -27 140 -6
25 -13 113 -15 197 l-6 152 12 75 c7 41 14 93 16 115 10 108 91 374 150 491
166 330 488 623 791 720 38 12 77 26 86 31 10 5 31 9 47 9 16 0 42 5 58 11 63
26 328 37 438 19z m-1595 -826 l10 -10 -29 -65 c-48 -107 -90 -258 -111 -400
l-20 -134 0 -130 0 -130 19 -125 c21 -141 39 -214 77 -315 14 -38 27 -83 28
-100 l1 -30 -398 0 c-220 0 -401 4 -404 8 -2 4 -4 328 -4 719 l0 711 10 6 c5
3 189 6 410 6 l400 0 11 -11z m3690 -3 c3 -1 5 -324 4 -718 l-1 -718 -419 0
-419 0 2 15 c1 8 13 43 28 77 36 88 82 270 96 387 l12 98 -6 187 -6 186 -20
95 c-24 118 -60 236 -95 314 -15 33 -25 65 -23 70 l4 11 419 -2 c231 -1 421
-2 424 -2z m1535 -23 c6 -5 7 -1379 2 -1384 -6 -6 -1378 -7 -1384 -1 -3 4 -7
1348 -3 1387 0 6 1379 4 1385 -2z m-6213 -3 l13 -5 -1 -697 -1 -697 -687 1
c-378 0 -689 3 -693 6 -3 3 -5 316 -5 694 l1 688 663 5 c365 3 671 6 680 8 9
1 22 0 30 -3z m6278 -1542 c3 -5 2 -169 -3 -366 l-8 -357 8 -333 9 -332 -11
-13 -12 -13 -727 -1 c-400 0 -730 2 -733 6 -9 8 -9 1416 -1 1419 20 6 1473 -4
1478 -10z m-6268 -706 c0 -390 -3 -711 -6 -714 -9 -9 -1389 -4 -1398 5 -4 4
-3 161 4 347 l11 340 -9 355 -9 355 9 13 9 12 694 -2 695 -3 0 -708z m1025
697 c44 -132 304 -449 459 -559 59 -42 63 -51 56 -145 -2 -41 -5 -213 -5 -382
0 -170 -2 -308 -6 -308 -3 -1 -316 -1 -696 -1 l-690 -1 1 619 c1 340 -1 653
-5 696 -3 43 -3 81 1 85 4 4 204 7 444 7 l437 0 4 -11z m3613 -4 c1 -7 1
-1383 0 -1395 l0 -10 -695 1 c-382 0 -697 3 -700 5 -2 3 -6 180 -6 394 l-2
389 72 53 c162 120 318 300 416 478 21 39 42 75 47 81 l8 11 430 0 c237 -1
430 -4 430 -7z m-2862 -729 c31 -16 73 -36 92 -44 19 -8 52 -22 73 -31 21 -9
45 -16 55 -16 9 0 37 -6 62 -14 179 -57 454 -59 665 -5 22 6 56 14 75 19 51
12 95 29 187 72 45 21 90 38 100 38 l18 0 -2 -341 c-1 -188 -4 -344 -7 -346
-7 -7 -1406 -6 -1412 0 -3 3 -6 161 -7 351 l-2 346 23 0 c12 0 48 -13 80 -29z
m-219 -819 c3 -6 3 -66 -1 -134 -4 -67 -7 -379 -6 -693 l2 -570 -712 -3 -712
-2 0 12 c0 7 0 322 -1 699 -1 377 0 690 3 695 l6 9 707 -2 708 -1 6 -10z
m-1577 -692 c-2 -382 -5 -697 -8 -699 -7 -7 -1358 0 -1366 7 -4 4 -9 317 -10
695 l-3 687 625 3 c344 1 656 2 695 2 l70 0 -3 -695z m3108 520 c-3 -96 -4
-410 -4 -698 l2 -522 -694 2 -693 3 -1 690 c-1 380 -1 693 -1 698 1 4 315 6
698 5 l697 -3 -4 -175z m1591 155 c-2 -11 -5 -326 -7 -700 l-2 -680 -719 0
-718 0 -5 695 c-3 382 -4 698 -2 703 2 4 330 6 730 5 l727 -3 -4 -20z m1537
-678 l2 -697 -700 2 -699 3 -1 690 c-1 380 -1 693 -1 698 1 4 315 6 699 5
l697 -3 3 -698z"/>
<path d="M12183 11993 c-34 -100 -199 -496 -282 -678 -10 -22 -29 -65 -41 -95
-12 -30 -56 -135 -98 -233 l-75 -178 9 -9 10 -10 500 2 499 3 3 23 c2 12 -8
47 -22 77 -15 30 -59 137 -100 237 -99 245 -214 528 -226 553 -5 11 -18 44
-29 73 -12 28 -29 73 -40 100 -10 26 -26 71 -36 100 l-17 52 -24 0 -25 0 -6
-17z m67 -390 c51 -140 155 -400 217 -541 24 -57 43 -110 41 -118 l-3 -16
-300 -1 -300 0 1 29 c1 16 24 79 52 139 47 104 76 172 182 435 47 114 56 130
76 130 l13 0 21 -57z"/>
<path d="M7465 5640 c-563 -140 -910 -930 -719 -1635 9 -33 20 -73 24 -90 11
-42 53 -140 87 -205 143 -273 307 -427 544 -511 l94 -34 137 1 136 0 14 11 c7
5 28 13 47 17 106 20 278 131 380 247 205 229 320 524 346 891 l7 86 -12 119
c-30 300 -98 501 -242 716 l-62 92 -80 78 -81 78 -75 44 c-92 53 -154 78 -245
99 l-70 16 -80 -1 c-44 -1 -111 -9 -150 -19z m245 -126 c78 -8 186 -51 270
-108 71 -47 140 -108 140 -123 l0 -13 -495 0 -495 0 0 10 c0 61 266 213 405
232 38 5 71 11 74 14 3 3 15 3 26 0 11 -3 45 -9 75 -12z m505 -378 c27 -10
124 -239 160 -378 l27 -103 5 -200 5 -200 -21 -113 c-24 -125 -88 -317 -125
-372 l-23 -35 -614 0 c-338 0 -619 4 -626 8 -57 36 -153 369 -168 588 l-7 94
12 115 c23 229 112 504 189 587 l17 18 579 -2 c319 -2 584 -4 590 -7z m-67
-1557 l3 -16 -59 -55 c-71 -65 -185 -142 -244 -164 -44 -16 -70 -23 -170 -44
l-58 -13 -67 17 c-38 9 -77 16 -88 16 -11 1 -29 7 -39 15 -11 8 -27 15 -36 15
-25 0 -165 96 -236 162 l-64 61 9 11 10 12 518 -1 518 0 3 -16z"/>
<path d="M7018 4789 l-18 -10 0 -323 0 -324 23 -6 c12 -3 275 -6 585 -6 l563
0 19 10 19 10 -1 321 -2 321 -18 9 -17 9 -568 0 -568 -1 -17 -10z m1047 -329
l0 -205 -445 -3 c-245 -1 -455 0 -467 3 l-23 5 0 199 c0 109 3 201 7 204 3 4
214 6 467 5 l461 -3 0 -205z"/>
</g>
</svg>
